<svg width="32" height="32" viewBox="0 0 32 32" fill="none" xmlns="http://www.w3.org/2000/svg">
<path d="M15.9958 11.553C13.5475 11.553 11.5495 13.551 11.5495 15.9994C11.5495 18.4477 13.5475 20.4457 15.9958 20.4457C18.444 20.4457 20.442 18.4477 20.442 15.9994C20.442 13.551 18.444 11.553 15.9958 11.553ZM29.3312 15.9994C29.3312 14.1581 29.3479 12.3335 29.2445 10.4956C29.1411 8.36086 28.6541 6.46624 27.0931 4.90519C25.5287 3.3408 23.6375 2.85714 21.5027 2.75373C19.6615 2.65033 17.837 2.66701 15.9991 2.66701C14.1579 2.66701 12.3334 2.65033 10.4955 2.75373C8.36075 2.85714 6.46617 3.34413 4.90515 4.90519C3.34078 6.46958 2.85713 8.36086 2.75373 10.4956C2.65033 12.3369 2.66701 14.1614 2.66701 15.9994C2.66701 17.8373 2.65033 19.6652 2.75373 21.5031C2.85713 23.6378 3.34412 25.5325 4.90515 27.0935C6.46951 28.6579 8.36075 29.1416 10.4955 29.245C12.3367 29.3484 14.1612 29.3317 15.9991 29.3317C17.8403 29.3317 19.6648 29.3484 21.5027 29.245C23.6375 29.1416 25.532 28.6546 27.0931 27.0935C28.6574 25.5291 29.1411 23.6378 29.2445 21.5031C29.3512 19.6652 29.3312 17.8406 29.3312 15.9994ZM15.9958 22.8406C12.2099 22.8406 9.1546 19.7852 9.1546 15.9994C9.1546 12.2135 12.2099 9.15806 15.9958 9.15806C19.7816 9.15806 22.8369 12.2135 22.8369 15.9994C22.8369 19.7852 19.7816 22.8406 15.9958 22.8406ZM23.1171 10.4756C22.2332 10.4756 21.5194 9.7618 21.5194 8.87787C21.5194 7.99394 22.2332 7.28013 23.1171 7.28013C24.001 7.28013 24.7148 7.99394 24.7148 8.87787C24.7151 9.08776 24.6739 9.29565 24.5937 9.48961C24.5135 9.68358 24.3959 9.85982 24.2475 10.0082C24.099 10.1567 23.9228 10.2743 23.7288 10.3545C23.5349 10.4347 23.327 10.4759 23.1171 10.4756Z" fill="url(#paint0_linear_1265_10750)"/>
<defs>
<linearGradient id="paint0_linear_1265_10750" x1="-3.66732" y1="37.666" x2="26.3327" y2="-1.66732" gradientUnits="userSpaceOnUse">
<stop stop-color="#FF5E5E"/>
<stop offset="0.397057" stop-color="#FD9D2D"/>
<stop offset="0.617953" stop-color="#FF4D4D"/>
<stop offset="1" stop-color="#FA1AF1"/>
</linearGradient>
</defs>
</svg>
