<svg width="32" height="32" viewBox="0 0 32 32" fill="none" xmlns="http://www.w3.org/2000/svg">
<g clip-path="url(#clip0_1265_10741)">
<path d="M0.683432 15.809C0.682682 18.4977 1.39065 21.1229 2.73684 23.4368L0.554688 31.3428L8.70833 29.2214C10.9635 30.4396 13.4903 31.078 16.058 31.0781H16.0648C24.5413 31.0781 31.4413 24.2337 31.445 15.8211C31.4466 11.7446 29.8481 7.91125 26.944 5.02728C24.0404 2.14356 20.1787 0.554595 16.0641 0.552734C7.58663 0.552734 0.687057 7.39677 0.683557 15.809" fill="url(#paint0_linear_1265_10741)"/>
<path d="M0.133744 15.8035C0.132869 18.5889 0.866212 21.308 2.2604 23.7048L0 31.8942L8.446 29.6967C10.7732 30.9558 13.3933 31.6196 16.0594 31.6206H16.0663C24.8469 31.6206 31.9948 24.53 31.9986 15.8162C32.0001 11.5932 30.3442 7.62208 27.3363 4.63479C24.3281 1.64788 20.3282 0.00173643 16.0663 0C7.28418 0 0.137369 7.08961 0.133869 15.8035H0.133744ZM5.16352 23.292L4.84816 22.7953C3.52247 20.7036 2.82275 18.2865 2.82375 15.8045C2.82663 8.56174 8.76687 2.66915 16.0713 2.66915C19.6086 2.67064 22.933 4.03895 25.4334 6.52155C27.9336 9.00441 29.3095 12.3049 29.3086 15.8152C29.3053 23.058 23.365 28.9513 16.0663 28.9513H16.061C13.6845 28.9501 11.3538 28.3168 9.32109 27.12L8.83736 26.8354L3.82533 28.1393L5.16352 23.2919V23.292Z" fill="url(#paint1_linear_1265_10741)"/>
<path d="M12.0843 9.19759C11.786 8.53986 11.4722 8.52658 11.1886 8.51505C10.9563 8.50513 10.6908 8.50587 10.4256 8.50587C10.1601 8.50587 9.72875 8.60497 9.36414 9.00001C8.99916 9.39542 7.9707 10.351 7.9707 12.2944C7.9707 14.238 9.39727 16.1162 9.59613 16.38C9.79525 16.6433 12.3501 20.7591 16.3965 22.3425C19.7593 23.6584 20.4437 23.3967 21.1735 23.3307C21.9035 23.2649 23.5289 22.3754 23.8605 21.453C24.1924 20.5307 24.1924 19.7401 24.0929 19.5749C23.9934 19.4103 23.7279 19.3115 23.3298 19.114C22.9315 18.9164 20.9744 17.9608 20.6095 17.8289C20.2445 17.6972 19.9792 17.6315 19.7137 18.027C19.4482 18.4219 18.6859 19.3115 18.4535 19.5749C18.2214 19.839 17.989 19.8718 17.591 19.6742C17.1927 19.476 15.9106 19.0594 14.3895 17.7138C13.2061 16.6667 12.4071 15.3737 12.1749 14.9782C11.9427 14.5833 12.15 14.3692 12.3496 14.1724C12.5285 13.9954 12.7479 13.7111 12.9471 13.4805C13.1456 13.2498 13.2118 13.0852 13.3446 12.8218C13.4775 12.5581 13.411 12.3274 13.3116 12.1298C13.2118 11.9322 12.4383 9.97874 12.0843 9.19772" fill="white"/>
</g>
<defs>
<linearGradient id="paint0_linear_1265_10741" x1="15.9998" y1="31.3428" x2="15.9998" y2="0.552734" gradientUnits="userSpaceOnUse">
<stop stop-color="#1FAF38"/>
<stop offset="1" stop-color="#60D669"/>
</linearGradient>
<linearGradient id="paint1_linear_1265_10741" x1="15.9993" y1="31.8942" x2="15.9993" y2="0" gradientUnits="userSpaceOnUse">
<stop stop-color="#F9F9F9"/>
<stop offset="1" stop-color="white"/>
</linearGradient>
<clipPath id="clip0_1265_10741">
<rect width="32" height="32" fill="white"/>
</clipPath>
</defs>
</svg>
